# xmcd
#
# Track frame offsets: 
#        150
#        20207
#        42915
#        66055
#        85304
#        111475
#        138343
#        163252
#        191963
#        208899
#
# Disc length: 3150 seconds
#
# Revision: 0
# Processed by: cddbd v1.5.2PL0 Copyright (c) Steve Scherf et al.
# Submitted via: ExactAudioCopy v1.0b1
#
DISCID=9c0c4c0a
DTITLE=Mary Chapin Carpenter - Songs from the Movie
DYEAR=2014
DGENRE=Country
TTITLE0=On and On It Goes
TTITLE1=I Am a Town
TTITLE2=Between Here and Gone
TTITLE3=Ideas Are Like Stars
TTITLE4=The Dreaming Road
TTITLE5=Only a Dream
TTITLE6=Come On Come On
TTITLE7=Mrs. Hemingway
TTITLE8=Where Time Stands Still
TTITLE9=Goodnight America
EXTD=
EXTT0=
EXTT1=
EXTT2=
EXTT3=
EXTT4=
EXTT5=
EXTT6=
EXTT7=
EXTT8=
EXTT9=
PLAYORDER=
